<?xml version="1.0" encoding="utf-8"?>
<!-- Generator: Adobe Illustrator 26.0.2, SVG Export Plug-In . SVG Version: 6.00 Build 0)  -->
<svg version="1.1" xmlns="http://www.w3.org/2000/svg" xmlns:xlink="http://www.w3.org/1999/xlink" x="0px" y="0px"
	 viewBox="0 0 100 25" style="enable-background:new 0 0 100 25;" xml:space="preserve">
<style type="text/css">
	.st0{fill:#FAD0DA;}
	.st1{fill:#FFFFFF;stroke:#FAD0DA;stroke-miterlimit:10;}
	.st2{display:none;}
	.st3{display:inline;}
</style>
<g id="Layer_3">
	<rect class="st0" width="100" height="25"/>
</g>
<g id="Layer_1">
	<g>
		<path class="st1" d="M16.7,18.75l-0.59,1.44c-0.4,0.76-1.01,1.27-1.83,1.53c-0.82,0.26-1.62,0.19-2.39-0.2
			c-0.76-0.41-1.27-1.02-1.53-1.84c-0.26-0.82-0.19-1.61,0.2-2.38l6.34-12.48c0.51-1.12,1.44-1.69,2.8-1.69
			c1.36,0,2.3,0.56,2.81,1.69l6.33,12.48c0.41,0.76,0.48,1.55,0.22,2.38c-0.26,0.82-0.78,1.44-1.55,1.84
			c-0.76,0.4-1.55,0.46-2.38,0.2c-0.82-0.26-1.43-0.77-1.83-1.53l-0.59-1.44H16.7z M20.77,14.06l-1.06-2.53l-1.05,2.53H20.77z"/>
		<path class="st1" d="M33.67,21.72c-0.86,0-1.6-0.3-2.21-0.91s-0.91-1.35-0.91-2.21V6.25c0-0.86,0.3-1.6,0.91-2.21
			s1.35-0.91,2.21-0.91c0.86,0,1.6,0.3,2.21,0.91s0.91,1.35,0.91,2.21v9.22h3.12c0.86,0,1.6,0.3,2.21,0.91s0.91,1.35,0.91,2.21
			c0,0.87-0.3,1.6-0.91,2.21s-1.35,0.91-2.21,0.91H33.67z"/>
		<path class="st1" d="M47.58,21.88c-0.86,0-1.6-0.3-2.21-0.91s-0.91-1.35-0.91-2.21V6.25c0-0.86,0.3-1.6,0.91-2.21
			s1.35-0.91,2.21-0.91c0.86,0,1.6,0.3,2.21,0.91s0.91,1.35,0.91,2.21v12.5c0,0.87-0.3,1.6-0.91,2.21S48.44,21.88,47.58,21.88z"/>
		<path class="st1" d="M58.52,14.56v4.19c0,0.87-0.31,1.6-0.91,2.21s-1.35,0.91-2.21,0.91c-0.86,0-1.6-0.3-2.21-0.91
			s-0.91-1.35-0.91-2.21V6.25c0-0.86,0.3-1.6,0.91-2.21s1.35-0.91,2.21-0.91c0.86,0,1.6,0.3,2.22,0.91l5.59,6.39V6.25
			c0-0.86,0.3-1.6,0.91-2.21c0.61-0.61,1.35-0.91,2.21-0.91c0.86,0,1.6,0.3,2.21,0.91s0.91,1.35,0.91,2.21v12.5
			c0,0.87-0.3,1.6-0.91,2.21s-1.35,0.91-2.21,0.91c-0.87,0-1.6-0.31-2.2-0.92L58.52,14.56z"/>
		<path class="st1" d="M77.28,18.75l-0.59,1.44c-0.4,0.76-1.01,1.27-1.83,1.53c-0.82,0.26-1.62,0.19-2.39-0.2
			c-0.76-0.41-1.27-1.02-1.53-1.84c-0.26-0.82-0.19-1.61,0.2-2.38l6.34-12.48c0.51-1.12,1.44-1.69,2.8-1.69
			c1.36,0,2.3,0.56,2.81,1.69l6.33,12.48c0.41,0.76,0.48,1.55,0.22,2.38c-0.26,0.82-0.78,1.44-1.55,1.84
			c-0.76,0.4-1.55,0.46-2.38,0.2c-0.82-0.26-1.43-0.77-1.83-1.53l-0.59-1.44H77.28z M81.35,14.06l-1.06-2.53l-1.05,2.53H81.35z"/>
	</g>
</g>
<g id="Layer_2" class="st2">
	<g class="st3">
		<path class="st1" d="M15.84,10.81c1.43,1.42,2.14,2.99,2.14,4.72c0,1.73-0.61,3.2-1.83,4.42s-2.69,1.83-4.42,1.83H7.04
			c-0.86,0-1.6-0.3-2.21-0.91s-0.91-1.35-0.91-2.21V6.46c0-0.86,0.3-1.6,0.91-2.21s1.35-0.91,2.21-0.91h4.38
			c1.4,0,2.58,0.49,3.56,1.47c0.98,0.98,1.47,2.17,1.47,3.56C16.45,9.26,16.25,10.08,15.84,10.81z M10.64,10.21
			c0.24,0,0.46-0.1,0.65-0.29c0.19-0.19,0.29-0.41,0.29-0.65c0-0.24-0.1-0.46-0.29-0.65c-0.19-0.19-0.41-0.29-0.65-0.29h-0.47v1.88
			H10.64z M10.17,14.27v2.5h0.62c0.34,0,0.64-0.12,0.88-0.37c0.24-0.24,0.37-0.54,0.37-0.88s-0.12-0.64-0.37-0.88
			c-0.25-0.24-0.54-0.37-0.88-0.37H10.17z"/>
		<path class="st1" d="M25.64,10.37h2.34c0.6,0,1.09,0.21,1.47,0.64c0.38,0.43,0.56,0.94,0.56,1.55c0,0.6-0.19,1.12-0.56,1.55
			c-0.38,0.43-0.86,0.64-1.47,0.64h-2.34v0.78h3.12c0.86,0,1.6,0.3,2.21,0.91c0.61,0.61,0.91,1.35,0.91,2.21
			c0,0.87-0.3,1.6-0.91,2.21s-1.35,0.91-2.21,0.91h-6.25c-0.86,0-1.6-0.3-2.21-0.91s-0.91-1.35-0.91-2.21V6.46
			c0-0.86,0.3-1.6,0.91-2.21s1.35-0.91,2.21-0.91h6.25c0.86,0,1.6,0.3,2.21,0.91s0.91,1.35,0.91,2.21c0,0.86-0.3,1.6-0.91,2.21
			s-1.35,0.91-2.21,0.91h-3.12V10.37z"/>
		<path class="st1" d="M43.62,14.77c0.12-0.19,0.27-0.36,0.44-0.53c0.6-0.6,1.34-0.91,2.2-0.91c0.86,0,1.6,0.3,2.21,0.91
			s0.91,1.35,0.91,2.21c0,0.23-0.02,0.45-0.06,0.67c-0.08,0.6-0.51,1.29-1.27,2.05c-1.83,1.83-4.05,2.75-6.64,2.75
			c-2.58,0-4.79-0.91-6.62-2.74c-1.83-1.83-2.75-4.04-2.75-6.63s0.92-4.8,2.75-6.63c1.83-1.83,4.04-2.74,6.62-2.74
			c2.59,0,4.81,0.91,6.64,2.73c0.76,0.77,1.18,1.46,1.27,2.06c0.04,0.22,0.06,0.44,0.06,0.67c0,0.86-0.31,1.6-0.91,2.21
			s-1.35,0.91-2.21,0.91c-0.86,0-1.6-0.31-2.2-0.92c-0.17-0.16-0.31-0.33-0.44-0.52c-0.6-0.6-1.34-0.91-2.2-0.91
			c-0.86,0-1.6,0.3-2.21,0.91s-0.91,1.35-0.91,2.21c0,0.86,0.3,1.6,0.91,2.21s1.35,0.91,2.21,0.91
			C42.28,15.68,43.02,15.38,43.62,14.77z"/>
		<path class="st1" d="M57.2,15.71v3.09c0,0.87-0.3,1.6-0.91,2.21s-1.35,0.91-2.21,0.91c-0.87,0-1.6-0.3-2.21-0.91
			s-0.91-1.35-0.91-2.21V6.31c0-0.86,0.3-1.6,0.91-2.21s1.35-0.91,2.21-0.91c0.86,0,1.6,0.3,2.21,0.91s0.91,1.35,0.91,2.21V8.4
			l2.98-3.97c0.51-0.69,1.19-1.09,2.05-1.21c0.85-0.12,1.63,0.08,2.33,0.59c0.69,0.52,1.09,1.21,1.21,2.06
			c0.12,0.85-0.08,1.62-0.6,2.31l-2.89,3.86l3.66,4.89c0.52,0.69,0.72,1.46,0.6,2.31c-0.12,0.85-0.52,1.54-1.21,2.06
			c-0.7,0.51-1.47,0.71-2.33,0.59c-0.85-0.12-1.54-0.52-2.05-1.21L57.2,15.71z"/>
		<path class="st1" d="M74.07,10.37h2.34c0.6,0,1.09,0.21,1.47,0.64c0.38,0.43,0.56,0.94,0.56,1.55c0,0.6-0.19,1.12-0.56,1.55
			c-0.38,0.43-0.87,0.64-1.47,0.64h-2.34v0.78h3.12c0.86,0,1.6,0.3,2.21,0.91c0.61,0.61,0.91,1.35,0.91,2.21
			c0,0.87-0.3,1.6-0.91,2.21s-1.35,0.91-2.21,0.91h-6.25c-0.87,0-1.6-0.3-2.21-0.91s-0.91-1.35-0.91-2.21V6.46
			c0-0.86,0.3-1.6,0.91-2.21s1.35-0.91,2.21-0.91h6.25c0.86,0,1.6,0.3,2.21,0.91s0.91,1.35,0.91,2.21c0,0.86-0.3,1.6-0.91,2.21
			s-1.35,0.91-2.21,0.91h-3.12V10.37z"/>
		<path class="st1" d="M87.98,16.32v2.48c0,0.87-0.3,1.6-0.91,2.21s-1.35,0.91-2.21,0.91c-0.87,0-1.6-0.3-2.21-0.91
			s-0.91-1.35-0.91-2.21V6.46c0-0.86,0.3-1.6,0.91-2.21s1.35-0.91,2.21-0.91h4.69c1.73,0,3.2,0.61,4.42,1.83s1.83,2.69,1.83,4.42
			c0,1.73-0.61,3.2-1.83,4.42c-0.14,0.14-0.27,0.26-0.41,0.38l1.91,2.55c0.52,0.69,0.72,1.46,0.6,2.31
			c-0.12,0.85-0.52,1.54-1.21,2.06c-0.7,0.51-1.47,0.71-2.33,0.59c-0.85-0.12-1.54-0.52-2.05-1.21L87.98,16.32z M88.61,10.84
			c0.34,0,0.64-0.12,0.88-0.37c0.24-0.24,0.37-0.54,0.37-0.88s-0.12-0.64-0.37-0.88c-0.25-0.24-0.54-0.37-0.88-0.37h-0.62v2.5H88.61
			z"/>
	</g>
</g>
</svg>
