<?xml version="1.0" encoding="utf-8"?>
<!-- Generator: Adobe Illustrator 26.0.2, SVG Export Plug-In . SVG Version: 6.00 Build 0)  -->
<svg version="1.1" id="Layer_1" xmlns="http://www.w3.org/2000/svg" xmlns:xlink="http://www.w3.org/1999/xlink" x="0px" y="0px"
	 viewBox="0 0 50 50" style="enable-background:new 0 0 50 50;" xml:space="preserve">
<style type="text/css">
	.st0{fill:#FAD0DA;}
	.st1{fill:#FFFFFF;stroke:#FAD0DA;stroke-width:0.5;stroke-miterlimit:10;}
</style>
<rect class="st0" width="50.19" height="50"/>
<path class="st1" d="M2.28,26.81C2.17,27.02,2,27.15,1.78,27.22s-0.44,0.05-0.65-0.05c-0.21-0.11-0.34-0.28-0.41-0.5
	c-0.07-0.22-0.05-0.44,0.05-0.64l1.71-3.37c0.14-0.3,0.39-0.46,0.75-0.46c0.37,0,0.62,0.15,0.76,0.46l1.71,3.37
	c0.11,0.21,0.13,0.42,0.06,0.64c-0.07,0.22-0.21,0.39-0.42,0.5c-0.21,0.11-0.42,0.13-0.64,0.05c-0.22-0.07-0.39-0.21-0.49-0.41
	l-0.16-0.39h-1.1 M2.96,26.42H2.44l-0.16,0.39 M3.53,25.16l-0.29-0.68l-0.28,0.68H3.53z"/>
<path class="st1" d="M7.02,27.22c-0.23,0-0.43-0.08-0.6-0.25s-0.25-0.36-0.25-0.6v-3.33c0-0.23,0.08-0.43,0.25-0.6
	c0.16-0.16,0.36-0.25,0.6-0.25s0.43,0.08,0.6,0.25c0.16,0.16,0.25,0.36,0.25,0.6v2.49H8.7c0.23,0,0.43,0.08,0.6,0.25
	c0.16,0.16,0.25,0.36,0.25,0.6s-0.08,0.43-0.25,0.6s-0.36,0.25-0.6,0.25H7.02z"/>
<path class="st1" d="M10.77,27.27c-0.23,0-0.43-0.08-0.6-0.25c-0.16-0.16-0.25-0.36-0.25-0.6v-3.37c0-0.23,0.08-0.43,0.25-0.6
	c0.16-0.16,0.36-0.25,0.6-0.25c0.23,0,0.43,0.08,0.6,0.25c0.16,0.16,0.25,0.36,0.25,0.6v3.37c0,0.23-0.08,0.43-0.25,0.6
	C11.2,27.18,11,27.27,10.77,27.27z"/>
<path class="st1" d="M13.72,25.29v1.13c0,0.23-0.08,0.43-0.25,0.6c-0.16,0.16-0.36,0.25-0.6,0.25c-0.23,0-0.43-0.08-0.6-0.25
	c-0.16-0.16-0.25-0.36-0.25-0.6v-3.37c0-0.23,0.08-0.43,0.25-0.6c0.16-0.16,0.36-0.25,0.6-0.25c0.23,0,0.43,0.08,0.6,0.24l1.51,1.72
	v-1.13c0-0.23,0.08-0.43,0.25-0.6c0.16-0.16,0.36-0.25,0.6-0.25c0.23,0,0.43,0.08,0.6,0.25c0.16,0.16,0.25,0.36,0.25,0.6v3.37
	c0,0.23-0.08,0.43-0.25,0.6c-0.16,0.16-0.36,0.25-0.6,0.25c-0.23,0-0.43-0.08-0.59-0.25L13.72,25.29z"/>
<path class="st1" d="M19.54,26.42h-0.75l-0.16,0.39 M18.63,26.81c-0.11,0.21-0.27,0.34-0.49,0.41s-0.44,0.05-0.65-0.05
	c-0.21-0.11-0.34-0.28-0.41-0.5c-0.07-0.22-0.05-0.44,0.05-0.64l1.71-3.37c0.14-0.3,0.39-0.46,0.75-0.46c0.37,0,0.62,0.15,0.76,0.46
	l1.71,3.37c0.11,0.21,0.13,0.42,0.06,0.64c-0.07,0.22-0.21,0.39-0.42,0.5c-0.21,0.11-0.42,0.13-0.64,0.05s-0.39-0.21-0.49-0.41
	l-0.16-0.39h-0.87 M19.88,25.16l-0.29-0.68l-0.28,0.68H19.88z"/>
<path class="st1" d="M27.85,24.26c0.39,0.38,0.58,0.81,0.58,1.27c0,0.47-0.16,0.86-0.49,1.19s-0.73,0.49-1.19,0.49h-1.27
	c-0.23,0-0.43-0.08-0.6-0.25c-0.16-0.16-0.25-0.36-0.25-0.6v-3.29c0-0.23,0.08-0.43,0.25-0.6c0.16-0.16,0.36-0.25,0.6-0.25h1.18
	c0.38,0,0.7,0.13,0.96,0.4c0.26,0.26,0.4,0.58,0.4,0.96C28.01,23.85,27.96,24.07,27.85,24.26z M26.44,24.1
	c0.06,0,0.12-0.03,0.18-0.08c0.05-0.05,0.08-0.11,0.08-0.18c0-0.06-0.03-0.12-0.08-0.18c-0.05-0.05-0.11-0.08-0.18-0.08h-0.13v0.51
	H26.44z M26.32,25.2v0.67h0.17c0.09,0,0.17-0.03,0.24-0.1c0.07-0.07,0.1-0.15,0.1-0.24s-0.03-0.17-0.1-0.24
	c-0.07-0.07-0.15-0.1-0.24-0.1H26.32z"/>
<path class="st1" d="M30.49,24.14h0.63c0.16,0,0.3,0.06,0.4,0.17s0.15,0.25,0.15,0.42c0,0.16-0.05,0.3-0.15,0.42
	s-0.23,0.17-0.4,0.17h-0.63v0.21h0.84c0.23,0,0.43,0.08,0.6,0.25c0.16,0.16,0.25,0.36,0.25,0.6s-0.08,0.43-0.25,0.6
	c-0.16,0.16-0.36,0.25-0.6,0.25h-1.69c-0.23,0-0.43-0.08-0.6-0.25c-0.16-0.16-0.25-0.36-0.25-0.6v-3.29c0-0.23,0.08-0.43,0.25-0.6
	c0.16-0.16,0.36-0.25,0.6-0.25h1.69c0.23,0,0.43,0.08,0.6,0.25c0.16,0.16,0.25,0.36,0.25,0.6s-0.08,0.43-0.25,0.6
	c-0.16,0.16-0.36,0.25-0.6,0.25h-0.84V24.14z"/>
<path class="st1" d="M35.35,25.33c0.03-0.05,0.07-0.1,0.12-0.14c0.16-0.16,0.36-0.24,0.59-0.24c0.23,0,0.43,0.08,0.6,0.25
	c0.16,0.16,0.25,0.36,0.25,0.6c0,0.06-0.01,0.12-0.02,0.18c-0.02,0.16-0.14,0.35-0.34,0.55c-0.49,0.49-1.09,0.74-1.79,0.74
	c-0.7,0-1.29-0.25-1.79-0.74c-0.49-0.49-0.74-1.09-0.74-1.79s0.25-1.3,0.74-1.79c0.49-0.49,1.09-0.74,1.79-0.74
	c0.7,0,1.3,0.25,1.79,0.74c0.21,0.21,0.32,0.39,0.34,0.56c0.01,0.06,0.02,0.12,0.02,0.18c0,0.23-0.08,0.43-0.25,0.6
	c-0.16,0.16-0.36,0.25-0.6,0.25c-0.23,0-0.43-0.08-0.59-0.25c-0.04-0.04-0.08-0.09-0.12-0.14c-0.16-0.16-0.36-0.24-0.59-0.24
	s-0.43,0.08-0.6,0.25c-0.16,0.16-0.25,0.36-0.25,0.6s0.08,0.43,0.25,0.6c0.16,0.16,0.36,0.25,0.6,0.25S35.18,25.5,35.35,25.33z"/>
<path class="st1" d="M39.01,25.59v0.84c0,0.23-0.08,0.43-0.25,0.6c-0.16,0.16-0.36,0.25-0.6,0.25s-0.43-0.08-0.6-0.25
	c-0.16-0.16-0.25-0.36-0.25-0.6v-3.37c0-0.23,0.08-0.43,0.25-0.6c0.16-0.16,0.36-0.25,0.6-0.25s0.43,0.08,0.6,0.25
	c0.16,0.16,0.25,0.36,0.25,0.6v0.57l0.81-1.07c0.14-0.19,0.32-0.29,0.55-0.33s0.44,0.02,0.63,0.16c0.19,0.14,0.29,0.33,0.33,0.56
	c0.03,0.23-0.02,0.44-0.16,0.62l-0.78,1.04l0.99,1.32c0.14,0.19,0.19,0.39,0.16,0.62c-0.03,0.23-0.14,0.42-0.33,0.56
	c-0.19,0.14-0.4,0.19-0.63,0.16c-0.23-0.03-0.41-0.14-0.55-0.33L39.01,25.59z"/>
<path class="st1" d="M43.57,24.14h0.63c0.16,0,0.3,0.06,0.4,0.17c0.1,0.12,0.15,0.25,0.15,0.42c0,0.16-0.05,0.3-0.15,0.42
	c-0.1,0.12-0.23,0.17-0.4,0.17h-0.63v0.21h0.84c0.23,0,0.43,0.08,0.6,0.25c0.16,0.16,0.25,0.36,0.25,0.6s-0.08,0.43-0.25,0.6
	s-0.36,0.25-0.6,0.25h-1.69c-0.23,0-0.43-0.08-0.6-0.25c-0.16-0.16-0.25-0.36-0.25-0.6v-3.29c0-0.23,0.08-0.43,0.25-0.6
	c0.16-0.16,0.36-0.25,0.6-0.25h1.69c0.23,0,0.43,0.08,0.6,0.25c0.16,0.16,0.25,0.36,0.25,0.6s-0.08,0.43-0.25,0.6
	c-0.16,0.16-0.36,0.25-0.6,0.25h-0.84V24.14z"/>
<path class="st1" d="M47.32,25.75v0.67c0,0.23-0.08,0.43-0.25,0.6c-0.16,0.16-0.36,0.25-0.6,0.25s-0.43-0.08-0.6-0.25
	c-0.16-0.16-0.25-0.36-0.25-0.6v-3.33c0-0.23,0.08-0.43,0.25-0.6c0.16-0.16,0.36-0.25,0.6-0.25h1.27c0.47,0,0.86,0.16,1.19,0.49
	c0.33,0.33,0.49,0.73,0.49,1.19c0,0.47-0.16,0.86-0.49,1.19c-0.04,0.04-0.07,0.07-0.11,0.1l0.51,0.69c0.14,0.19,0.19,0.39,0.16,0.62
	c-0.03,0.23-0.14,0.42-0.33,0.56c-0.19,0.14-0.4,0.19-0.63,0.16c-0.23-0.03-0.41-0.14-0.55-0.33L47.32,25.75z M47.49,24.27
	c0.09,0,0.17-0.03,0.24-0.1s0.1-0.15,0.1-0.24s-0.03-0.17-0.1-0.24c-0.07-0.07-0.15-0.1-0.24-0.1h-0.17v0.67H47.49z"/>
</svg>
