<svg xmlns="http://www.w3.org/2000/svg" viewBox="0 0 100 25"><defs><style>.cls-1{fill:#fad0da;}.cls-2{fill:#fff;stroke:#fad0da;stroke-miterlimit:10;}</style></defs><g id="Layer_3" data-name="Layer 3"><rect class="cls-1" width="100" height="25"/></g><g id="Layer_2" data-name="Layer 2"><path class="cls-2" d="M15.84,10.81A6.49,6.49,0,0,1,18,15.52a6.23,6.23,0,0,1-6.25,6.25H7a3.11,3.11,0,0,1-3.12-3.12V6.46A3.11,3.11,0,0,1,7,3.34h4.38A4.85,4.85,0,0,1,15,4.81a4.84,4.84,0,0,1,1.47,3.56A4.91,4.91,0,0,1,15.84,10.81Zm-5.2-.6a.85.85,0,0,0,.64-.29.86.86,0,0,0,0-1.29.85.85,0,0,0-.64-.29h-.47v1.87Zm-.47,4.06v2.5h.62a1.25,1.25,0,1,0,0-2.5Z"/><path class="cls-2" d="M25.64,10.37H28a1.87,1.87,0,0,1,1.47.64A2.29,2.29,0,0,1,30,12.56a2.26,2.26,0,0,1-.56,1.54,1.87,1.87,0,0,1-1.47.64H25.64v.78h3.12A3.13,3.13,0,0,1,31,20.86a3,3,0,0,1-2.21.91H22.51a3.11,3.11,0,0,1-3.12-3.12V6.46a3.11,3.11,0,0,1,3.12-3.12h6.25A3,3,0,0,1,31,4.25a3,3,0,0,1,.92,2.21A3,3,0,0,1,31,8.67a3,3,0,0,1-2.21.92H25.64Z"/><path class="cls-2" d="M43.62,14.77a4.26,4.26,0,0,1,.44-.53,3.13,3.13,0,0,1,5.33,2.22,2.93,2.93,0,0,1-.07.67,3.86,3.86,0,0,1-1.26,2.05,9.39,9.39,0,0,1-13.27,0A9,9,0,0,1,32,12.56a9,9,0,0,1,2.75-6.64,9.4,9.4,0,0,1,13.27,0A3.92,3.92,0,0,1,49.32,8a3,3,0,0,1,.07.67,3.12,3.12,0,0,1-3.13,3.12,3,3,0,0,1-2.2-.92,3,3,0,0,1-.44-.51,3,3,0,0,0-2.2-.91,3.12,3.12,0,0,0-3.13,3.13,3.12,3.12,0,0,0,3.13,3.12A3,3,0,0,0,43.62,14.77Z"/><path class="cls-2" d="M57.2,15.71v3.1A3.05,3.05,0,0,1,56.29,21,3.13,3.13,0,0,1,51,18.81V6.31a3,3,0,0,1,.91-2.22A3.13,3.13,0,0,1,57.2,6.31V8.4l3-4a3,3,0,0,1,2-1.21,3.1,3.1,0,0,1,2.33.59,3,3,0,0,1,1.21,2.06,3,3,0,0,1-.6,2.31L62.28,12l3.65,4.89a3.11,3.11,0,0,1-2.93,5,3,3,0,0,1-2-1.21Z"/><path class="cls-2" d="M74.07,10.37h2.35a1.87,1.87,0,0,1,1.47.64,2.29,2.29,0,0,1,.56,1.55,2.26,2.26,0,0,1-.56,1.54,1.87,1.87,0,0,1-1.47.64H74.07v.78H77.2a3.13,3.13,0,0,1,2.21,5.34,3,3,0,0,1-2.21.91H71a3.12,3.12,0,0,1-3.13-3.12V6.46a3,3,0,0,1,.92-2.21A3,3,0,0,1,71,3.34H77.2a3.11,3.11,0,0,1,3.12,3.12A3.12,3.12,0,0,1,77.2,9.59H74.07Z"/><path class="cls-2" d="M88,16.32v2.49A3.13,3.13,0,0,1,82.64,21a3.05,3.05,0,0,1-.91-2.21V6.46a3.05,3.05,0,0,1,.91-2.21,3,3,0,0,1,2.22-.91h4.68A6,6,0,0,1,94,5.17a6,6,0,0,1,1.82,4.42A6,6,0,0,1,94,14l-.41.37,1.91,2.55a3,3,0,0,1,.6,2.31,3,3,0,0,1-1.21,2.07,3.09,3.09,0,0,1-2.33.58,3,3,0,0,1-2-1.21Zm.63-5.48a1.23,1.23,0,0,0,.88-.37,1.22,1.22,0,0,0,.37-.88,1.24,1.24,0,0,0-.37-.89,1.22,1.22,0,0,0-.88-.36H88v2.5Z"/></g></svg>